<svg width="1585" height="863" viewBox="0 0 1585 863" fill="none" xmlns="http://www.w3.org/2000/svg">
<g clip-path="url(#clip0_1119_346)">
<path d="M665.919 862.45L530.534 848.14L355.523 844.837L665.919 862.45Z" fill="#502A5C" stroke="#502A5C" stroke-miterlimit="1" stroke-linejoin="round"/>
<path d="M665.92 862.45L355.524 844.837L93.5586 862.45H665.92Z" fill="#4D2A5D" stroke="#4D2A5D" stroke-miterlimit="1" stroke-linejoin="round"/>
<path d="M1083.08 52.2864L793.602 0.550415L1024.75 51.1856L1083.08 52.2864Z" fill="#60326D" stroke="#60326D" stroke-miterlimit="1" stroke-linejoin="round"/>
<path d="M1483.74 0.550415H793.602L1083.08 52.2864L1483.74 0.550415Z" fill="#582D62" stroke="#582D62" stroke-miterlimit="1" stroke-linejoin="round"/>
<path d="M1699.47 646.7L1545.38 742.466L1674.16 862.45L1699.47 646.7Z" fill="#AA4F9D" stroke="#AA4F9D" stroke-miterlimit="1" stroke-linejoin="round"/>
<path d="M1682.96 378.113L1678.56 238.316L1571.79 269.137L1682.96 378.113Z" fill="#71376F" stroke="#71376F" stroke-miterlimit="1" stroke-linejoin="round"/>
<path d="M1699.47 646.7L1571.79 637.893L1545.38 742.466L1699.47 646.7Z" fill="#B554A6" stroke="#B554A6" stroke-miterlimit="1" stroke-linejoin="round"/>
<path d="M1699.47 646.7L1665.35 537.724L1571.79 637.894L1699.47 646.7Z" fill="#A24C96" stroke="#A24C96" stroke-miterlimit="1" stroke-linejoin="round"/>
<path d="M1674.16 862.45L1545.38 742.466L1566.29 862.45H1674.16Z" fill="#AE51A0" stroke="#AE51A0" stroke-miterlimit="1" stroke-linejoin="round"/>
<path d="M1678.56 238.316L1624.62 65.4955L1571.79 269.137L1678.56 238.316Z" fill="#653166" stroke="#653166" stroke-miterlimit="1" stroke-linejoin="round"/>
<path d="M1566.29 862.45L1396.78 797.504L1167.84 862.45H1566.29Z" fill="#B856AA" stroke="#B856AA" stroke-miterlimit="1" stroke-linejoin="round"/>
<path d="M1601.51 418.841L1571.79 269.137L1545.38 389.121L1601.51 418.841Z" fill="#7F3D7B" stroke="#7F3D7B" stroke-miterlimit="1" stroke-linejoin="round"/>
<path d="M1665.35 537.724L1562.99 620.281L1571.79 637.894L1665.35 537.724Z" fill="#AF52A3" stroke="#AF52A3" stroke-miterlimit="1" stroke-linejoin="round"/>
<path d="M1682.96 378.113L1571.79 269.137L1601.51 418.841L1682.96 378.113Z" fill="#7B3B77" stroke="#7B3B77" stroke-miterlimit="1" stroke-linejoin="round"/>
<path d="M1665.35 537.724L1601.51 418.841L1531.07 499.197L1665.35 537.724Z" fill="#95468C" stroke="#95468C" stroke-miterlimit="1" stroke-linejoin="round"/>
<path d="M1624.62 65.4955L1460.62 135.944L1571.79 269.137L1624.62 65.4955Z" fill="#623064" stroke="#623064" stroke-miterlimit="1" stroke-linejoin="round"/>
<path d="M1665.35 537.724L1531.07 499.197L1562.99 620.281L1665.35 537.724Z" fill="#A64E9B" stroke="#A64E9B" stroke-miterlimit="1" stroke-linejoin="round"/>
<path d="M1566.29 862.45L1545.37 742.466L1522.26 773.288L1566.29 862.45Z" fill="#C059AF" stroke="#C059AF" stroke-miterlimit="1" stroke-linejoin="round"/>
<path d="M1571.79 637.893L1556.38 640.095L1545.38 742.466L1571.79 637.893Z" fill="#C35AB2" stroke="#C35AB2" stroke-miterlimit="1" stroke-linejoin="round"/>
<path d="M1624.63 65.4956L1603.71 0.550415H1483.74L1624.63 65.4956Z" fill="#572B5B" stroke="#572B5B" stroke-miterlimit="1" stroke-linejoin="round"/>
<path d="M1624.62 65.4956L1483.74 0.550415L1460.62 135.945L1624.62 65.4956Z" fill="#5B2D5F" stroke="#5B2D5F" stroke-miterlimit="1" stroke-linejoin="round"/>
<path d="M1483.74 0.550415L1083.08 52.2864L1462.82 17.0619L1483.74 0.550415Z" fill="#582D5E" stroke="#582D5E" stroke-miterlimit="1" stroke-linejoin="round"/>
<path d="M1483.74 0.550415L1462.82 17.0619L1460.62 135.945L1483.74 0.550415Z" fill="#5C2E60" stroke="#5C2E60" stroke-miterlimit="1" stroke-linejoin="round"/>
<path d="M1562.99 620.281L1531.07 499.197L1515.66 504.701L1562.99 620.281Z" fill="#AA509E" stroke="#AA509E" stroke-miterlimit="1" stroke-linejoin="round"/>
<path d="M1571.79 269.137L1460.62 135.945L1440.81 162.363L1571.79 269.137Z" fill="#6B346C" stroke="#6B346C" stroke-miterlimit="1" stroke-linejoin="round"/>
<path d="M1601.51 418.841L1545.38 389.121L1531.07 499.197L1601.51 418.841Z" fill="#8E4386" stroke="#8E4386" stroke-miterlimit="1" stroke-linejoin="round"/>
<path d="M1545.37 389.121L1462.82 468.376L1531.07 499.197L1545.37 389.121Z" fill="#96478E" stroke="#96478E" stroke-miterlimit="1" stroke-linejoin="round"/>
<path d="M1562.99 620.281L1515.66 504.701L1452.92 519.011L1562.99 620.281Z" fill="#B153A4" stroke="#B153A4" stroke-miterlimit="1" stroke-linejoin="round"/>
<path d="M1571.79 269.137L1440.81 162.363L1421 251.525L1571.79 269.137Z" fill="#6D356E" stroke="#6D356E" stroke-miterlimit="1" stroke-linejoin="round"/>
<path d="M1571.79 269.137L1467.23 381.415L1545.38 389.121L1571.79 269.137Z" fill="#7E3D7B" stroke="#7E3D7B" stroke-miterlimit="1" stroke-linejoin="round"/>
<path d="M1571.79 269.137L1421 251.525L1467.23 381.415L1571.79 269.137Z" fill="#783A76" stroke="#783A76" stroke-miterlimit="1" stroke-linejoin="round"/>
<path d="M1571.79 637.893L1562.99 620.281L1556.38 640.095L1571.79 637.893Z" fill="#BA57AA" stroke="#BA57AA" stroke-miterlimit="1" stroke-linejoin="round"/>
<path d="M1556.38 640.095L1460.62 753.474L1545.37 742.466L1556.38 640.095Z" fill="#CD5FBA" stroke="#CD5FBA" stroke-miterlimit="1" stroke-linejoin="round"/>
<path d="M1566.29 862.45L1522.26 773.288L1396.78 797.504L1566.29 862.45Z" fill="#C45BB3" stroke="#C45BB3" stroke-miterlimit="1" stroke-linejoin="round"/>
<path d="M1462.82 17.0619L1437.51 113.929L1460.62 135.945L1462.82 17.0619Z" fill="#5F2F63" stroke="#5F2F63" stroke-miterlimit="1" stroke-linejoin="round"/>
<path d="M1562.99 620.281L1452.92 519.011L1556.38 640.095L1562.99 620.281Z" fill="#B655A7" stroke="#B655A7" stroke-miterlimit="1" stroke-linejoin="round"/>
<path d="M1545.37 389.121L1467.23 381.415L1462.82 468.376L1545.37 389.121Z" fill="#8D4388" stroke="#8D4388" stroke-miterlimit="1" stroke-linejoin="round"/>
<path d="M1556.38 640.095L1452.92 519.011L1460.62 753.474L1556.38 640.095Z" fill="#CA5EB9" stroke="#CA5EB9" stroke-miterlimit="1" stroke-linejoin="round"/>
<path d="M1522.26 773.288L1460.62 753.474L1396.78 797.504L1522.26 773.288Z" fill="#CE5FBB" stroke="#CE5FBB" stroke-miterlimit="1" stroke-linejoin="round"/>
<path d="M1531.07 499.197L1462.82 468.376L1515.66 504.701L1531.07 499.197Z" fill="#9D4A93" stroke="#9D4A93" stroke-miterlimit="1" stroke-linejoin="round"/>
<path d="M1545.37 742.466L1460.62 753.474L1522.26 773.288L1545.37 742.466Z" fill="#CC5FBA" stroke="#CC5FBA" stroke-miterlimit="1" stroke-linejoin="round"/>
<path d="M1396.78 797.504L1231.68 810.714L1167.84 862.45L1396.78 797.504Z" fill="#A44D9B" stroke="#A44D9B" stroke-miterlimit="1" stroke-linejoin="round"/>
<path d="M1462.82 17.0619L1083.08 52.2864L1329.64 100.72L1462.82 17.0619Z" fill="#5D2F63" stroke="#5D2F63" stroke-miterlimit="1" stroke-linejoin="round"/>
<path d="M1467.23 381.415L1421 251.525L1417.7 367.105L1467.23 381.415Z" fill="#7F3D7D" stroke="#7F3D7D" stroke-miterlimit="1" stroke-linejoin="round"/>
<path d="M1460.62 753.474L1452.92 519.011L1429.8 510.205L1460.62 753.474Z" fill="#BF59AE" stroke="#BF59AE" stroke-miterlimit="1" stroke-linejoin="round"/>
<path d="M1329.64 100.72L1083.08 52.2864L1194.25 107.325L1329.64 100.72Z" fill="#5B2E62" stroke="#5B2E62" stroke-miterlimit="1" stroke-linejoin="round"/>
<path d="M1515.66 504.701L1462.82 468.376L1452.92 519.011L1515.66 504.701Z" fill="#A34D99" stroke="#A34D99" stroke-miterlimit="1" stroke-linejoin="round"/>
<path d="M1396.78 797.504L1237.18 533.321L1177.74 663.211L1396.78 797.504Z" fill="#AC51A2" stroke="#AC51A2" stroke-miterlimit="1" stroke-linejoin="round"/>
<path d="M1460.62 753.474L1429.8 510.205L1237.18 533.321L1460.62 753.474Z" fill="#BC58AE" stroke="#BC58AE" stroke-miterlimit="1" stroke-linejoin="round"/>
<path d="M1460.62 753.474L1237.18 533.321L1396.78 797.504L1460.62 753.474Z" fill="#C85DB8" stroke="#C85DB8" stroke-miterlimit="1" stroke-linejoin="round"/>
<path d="M1462.82 17.0619L1329.64 100.72L1359.36 96.317L1462.82 17.0619Z" fill="#5F2F62" stroke="#5F2F62" stroke-miterlimit="1" stroke-linejoin="round"/>
<path d="M1467.23 381.415L1417.7 367.105L1462.82 468.376L1467.23 381.415Z" fill="#8D4388" stroke="#8D4388" stroke-miterlimit="1" stroke-linejoin="round"/>
<path d="M1396.78 797.504L1177.74 663.211L1195.35 735.862L1396.78 797.504Z" fill="#AA50A0" stroke="#AA50A0" stroke-miterlimit="1" stroke-linejoin="round"/>
<path d="M1462.82 468.376L1417.69 367.105L1364.86 404.531L1462.82 468.376Z" fill="#90458A" stroke="#90458A" stroke-miterlimit="1" stroke-linejoin="round"/>
<path d="M1462.82 468.376L1429.8 510.205L1452.92 519.011L1462.82 468.376Z" fill="#A44D9A" stroke="#A44D9A" stroke-miterlimit="1" stroke-linejoin="round"/>
<path d="M1462.82 17.0619L1359.36 96.317L1437.51 113.929L1462.82 17.0619Z" fill="#5D2F62" stroke="#5D2F62" stroke-miterlimit="1" stroke-linejoin="round"/>
<path d="M1462.82 468.376L1364.86 404.531L1429.8 510.205L1462.82 468.376Z" fill="#9A4992" stroke="#9A4992" stroke-miterlimit="1" stroke-linejoin="round"/>
<path d="M1460.62 135.945L1437.51 113.929L1440.81 162.363L1460.62 135.945Z" fill="#66336B" stroke="#66336B" stroke-miterlimit="1" stroke-linejoin="round"/>
<path d="M1440.81 162.363L1329.64 100.72L1421 251.525L1440.81 162.363Z" fill="#673369" stroke="#673369" stroke-miterlimit="1" stroke-linejoin="round"/>
<path d="M1440.81 162.363L1359.36 96.317L1329.64 100.72L1440.81 162.363Z" fill="#603063" stroke="#603063" stroke-miterlimit="1" stroke-linejoin="round"/>
<path d="M1440.81 162.363L1437.51 113.929L1359.36 96.317L1440.81 162.363Z" fill="#633166" stroke="#633166" stroke-miterlimit="1" stroke-linejoin="round"/>
<path d="M1421 251.525L1364.86 404.531L1417.69 367.105L1421 251.525Z" fill="#7F3D7C" stroke="#7F3D7C" stroke-miterlimit="1" stroke-linejoin="round"/>
<path d="M1429.8 510.205L1364.86 404.531L1237.18 533.321L1429.8 510.205Z" fill="#9A4993" stroke="#9A4993" stroke-miterlimit="1" stroke-linejoin="round"/>
<path d="M1396.78 797.504L1195.35 735.862L1231.68 810.714L1396.78 797.504Z" fill="#AA50A0" stroke="#AA50A0" stroke-miterlimit="1" stroke-linejoin="round"/>
<path d="M1421 251.525L1329.64 100.72L1194.25 107.325L1421 251.525Z" fill="#653269" stroke="#653269" stroke-miterlimit="1" stroke-linejoin="round"/>
<path d="M1421 251.525L1101.79 343.989L1364.86 404.531L1421 251.525Z" fill="#7A3B7A" stroke="#7A3B7A" stroke-miterlimit="1" stroke-linejoin="round"/>
<path d="M1421 251.525L1194.25 107.325L1101.79 343.989L1421 251.525Z" fill="#6B356F" stroke="#6B356F" stroke-miterlimit="1" stroke-linejoin="round"/>
<path d="M1364.86 404.531L1101.79 343.989L1237.18 533.321L1364.86 404.531Z" fill="#844082" stroke="#844082" stroke-miterlimit="1" stroke-linejoin="round"/>
<path d="M682.431 0.550415H235.549L494.212 28.0695L682.431 0.550415Z" fill="#623987" stroke="#623987" stroke-miterlimit="1" stroke-linejoin="round"/>
<path d="M1115 535.522L1101.8 343.989L1053.37 488.189L1115 535.522Z" fill="#763B7A" stroke="#763B7A" stroke-miterlimit="1" stroke-linejoin="round"/>
<path d="M1194.25 107.325L1083.08 52.2864L1134.82 101.821L1194.25 107.325Z" fill="#603169" stroke="#603169" stroke-miterlimit="1" stroke-linejoin="round"/>
<path d="M1194.25 107.325L1134.82 101.821L1044.56 282.346L1194.25 107.325Z" fill="#613169" stroke="#613169" stroke-miterlimit="1" stroke-linejoin="round"/>
<path d="M1194.25 107.325L1044.56 282.346L1101.79 343.989L1194.25 107.325Z" fill="#67346E" stroke="#67346E" stroke-miterlimit="1" stroke-linejoin="round"/>
<path d="M1237.18 533.321L1115 535.522L1162.33 622.483L1237.18 533.321Z" fill="#8B4389" stroke="#8B4389" stroke-miterlimit="1" stroke-linejoin="round"/>
<path d="M1237.18 533.321L1101.79 343.989L1115 535.522L1237.18 533.321Z" fill="#7F3E80" stroke="#7F3E80" stroke-miterlimit="1" stroke-linejoin="round"/>
<path d="M1237.18 533.321L1162.33 622.483L1177.74 663.211L1237.18 533.321Z" fill="#934790" stroke="#934790" stroke-miterlimit="1" stroke-linejoin="round"/>
<path d="M1231.68 810.714L1195.35 735.862L1167.84 862.45L1231.68 810.714Z" fill="#95478F" stroke="#95478F" stroke-miterlimit="1" stroke-linejoin="round"/>
<path d="M1195.35 735.862L1177.74 663.211L1046.76 697.335L1195.35 735.862Z" fill="#8C4389" stroke="#8C4389" stroke-miterlimit="1" stroke-linejoin="round"/>
<path d="M1195.35 735.862L1046.76 697.335L1146.92 862.45L1195.35 735.862Z" fill="#894286" stroke="#894286" stroke-miterlimit="1" stroke-linejoin="round"/>
<path d="M1195.35 735.862L1146.92 862.45H1167.84L1195.35 735.862Z" fill="#8D4489" stroke="#8D4489" stroke-miterlimit="1" stroke-linejoin="round"/>
<path d="M1134.82 101.821L1083.08 52.2864L1094.09 85.3093L1134.82 101.821Z" fill="#5D3067" stroke="#5D3067" stroke-miterlimit="1" stroke-linejoin="round"/>
<path d="M1134.82 101.821L1094.09 85.3093L1044.56 282.346L1134.82 101.821Z" fill="#613169" stroke="#613169" stroke-miterlimit="1" stroke-linejoin="round"/>
<path d="M1146.92 862.45L1046.76 697.335L988.424 825.024L1146.92 862.45Z" fill="#7B3C7B" stroke="#7B3C7B" stroke-miterlimit="1" stroke-linejoin="round"/>
<path d="M1162.33 622.483L1115 535.522L1126.01 629.087L1162.33 622.483Z" fill="#894286" stroke="#894286" stroke-miterlimit="1" stroke-linejoin="round"/>
<path d="M1177.74 663.211L1126.01 629.087L1046.76 697.335L1177.74 663.211Z" fill="#874186" stroke="#874186" stroke-miterlimit="1" stroke-linejoin="round"/>
<path d="M1177.74 663.211L1162.33 622.483L1126.01 629.087L1177.74 663.211Z" fill="#8D448A" stroke="#8D448A" stroke-miterlimit="1" stroke-linejoin="round"/>
<path d="M1146.92 862.45L988.423 825.024L945.496 862.45H1146.92Z" fill="#743975" stroke="#743975" stroke-miterlimit="1" stroke-linejoin="round"/>
<path d="M1094.09 85.3093L954.303 211.897L1044.56 282.346L1094.09 85.3093Z" fill="#60326B" stroke="#60326B" stroke-miterlimit="1" stroke-linejoin="round"/>
<path d="M1126.01 629.087L1115 535.522L987.322 610.374L1126.01 629.087Z" fill="#7D3D7F" stroke="#7D3D7F" stroke-miterlimit="1" stroke-linejoin="round"/>
<path d="M1126.01 629.087L987.322 610.374L1029.15 673.118L1126.01 629.087Z" fill="#7B3C7C" stroke="#7B3C7C" stroke-miterlimit="1" stroke-linejoin="round"/>
<path d="M1126.01 629.087L1029.15 673.118L1046.76 697.335L1126.01 629.087Z" fill="#7E3E7E" stroke="#7E3E7E" stroke-miterlimit="1" stroke-linejoin="round"/>
<path d="M1094.09 85.3093L1024.75 51.1855L954.303 211.897L1094.09 85.3093Z" fill="#5D3068" stroke="#5D3068" stroke-miterlimit="1" stroke-linejoin="round"/>
<path d="M1101.79 343.989L949.898 353.896L1053.36 488.189L1101.79 343.989Z" fill="#6D3774" stroke="#6D3774" stroke-miterlimit="1" stroke-linejoin="round"/>
<path d="M1115 535.522L1053.36 488.189L987.322 610.374L1115 535.522Z" fill="#783B7B" stroke="#783B7B" stroke-miterlimit="1" stroke-linejoin="round"/>
<path d="M1024.75 51.1856L793.602 0.550415L939.994 73.2009L1024.75 51.1856Z" fill="#572E66" stroke="#572E66" stroke-miterlimit="1" stroke-linejoin="round"/>
<path d="M1046.76 697.335L962.008 772.187L988.424 825.024L1046.76 697.335Z" fill="#743975" stroke="#743975" stroke-miterlimit="1" stroke-linejoin="round"/>
<path d="M1101.79 343.989L1044.56 282.346L949.898 353.896L1101.79 343.989Z" fill="#693571" stroke="#693571" stroke-miterlimit="1" stroke-linejoin="round"/>
<path d="M1094.09 85.3093L1083.08 52.2863L1024.75 51.1855L1094.09 85.3093Z" fill="#5A2F66" stroke="#5A2F66" stroke-miterlimit="1" stroke-linejoin="round"/>
<path d="M954.301 211.897L939.992 73.2009L917.979 168.968L954.301 211.897Z" fill="#5C3069" stroke="#5C3069" stroke-miterlimit="1" stroke-linejoin="round"/>
<path d="M1024.75 51.1855L939.992 73.2009L954.301 211.897L1024.75 51.1855Z" fill="#5B2F68" stroke="#5B2F68" stroke-miterlimit="1" stroke-linejoin="round"/>
<path d="M987.323 610.374L933.389 537.724L952.1 591.661L987.323 610.374Z" fill="#6D3774" stroke="#6D3774" stroke-miterlimit="1" stroke-linejoin="round"/>
<path d="M1044.56 282.346L954.303 211.897L956.504 276.842L1044.56 282.346Z" fill="#64336E" stroke="#64336E" stroke-miterlimit="1" stroke-linejoin="round"/>
<path d="M1044.56 282.346L956.503 276.843L949.898 353.896L1044.56 282.346Z" fill="#65346F" stroke="#65346F" stroke-miterlimit="1" stroke-linejoin="round"/>
<path d="M1053.37 488.189L949.9 353.896L897.066 455.166L1053.37 488.189Z" fill="#6A3672" stroke="#6A3672" stroke-miterlimit="1" stroke-linejoin="round"/>
<path d="M1053.37 488.189L897.066 455.167L933.389 537.724L1053.37 488.189Z" fill="#6C3673" stroke="#6C3673" stroke-miterlimit="1" stroke-linejoin="round"/>
<path d="M1053.36 488.189L933.389 537.724L987.323 610.374L1053.36 488.189Z" fill="#713876" stroke="#713876" stroke-miterlimit="1" stroke-linejoin="round"/>
<path d="M1046.76 697.335L1029.15 673.118L962.008 772.187L1046.76 697.335Z" fill="#763A78" stroke="#763A78" stroke-miterlimit="1" stroke-linejoin="round"/>
<path d="M1029.15 673.118L987.324 610.374L962.008 772.187L1029.15 673.118Z" fill="#743977" stroke="#743977" stroke-miterlimit="1" stroke-linejoin="round"/>
<path d="M945.497 862.45L935.591 855.845L793.602 862.45H945.497Z" fill="#69356F" stroke="#69356F" stroke-miterlimit="1" stroke-linejoin="round"/>
<path d="M962.007 772.187L952.101 591.661L829.924 727.056L962.007 772.187Z" fill="#6A3570" stroke="#6A3570" stroke-miterlimit="1" stroke-linejoin="round"/>
<path d="M987.324 610.374L952.102 591.661L962.008 772.187L987.324 610.374Z" fill="#713875" stroke="#713875" stroke-miterlimit="1" stroke-linejoin="round"/>
<path d="M988.423 825.024L962.007 772.187L935.59 855.845L988.423 825.024Z" fill="#6D3670" stroke="#6D3670" stroke-miterlimit="1" stroke-linejoin="round"/>
<path d="M988.423 825.024L935.59 855.845L945.496 862.45L988.423 825.024Z" fill="#6C356E" stroke="#6C356E" stroke-miterlimit="1" stroke-linejoin="round"/>
<path d="M952.101 591.661L829.924 585.057V727.055L952.101 591.661Z" fill="#67346F" stroke="#67346F" stroke-miterlimit="1" stroke-linejoin="round"/>
<path d="M956.503 276.842L954.302 211.897L891.562 275.742L956.503 276.842Z" fill="#61326D" stroke="#61326D" stroke-miterlimit="1" stroke-linejoin="round"/>
<path d="M956.503 276.842L891.562 275.742L949.899 353.896L956.503 276.842Z" fill="#63336E" stroke="#63336E" stroke-miterlimit="1" stroke-linejoin="round"/>
<path d="M962.007 772.187L829.924 727.055L935.59 855.845L962.007 772.187Z" fill="#6A356F" stroke="#6A356F" stroke-miterlimit="1" stroke-linejoin="round"/>
<path d="M949.9 353.896L803.508 377.012L897.067 455.166L949.9 353.896Z" fill="#64336F" stroke="#64336F" stroke-miterlimit="1" stroke-linejoin="round"/>
<path d="M954.302 211.897L917.979 168.968L891.562 275.742L954.302 211.897Z" fill="#5E316C" stroke="#5E316C" stroke-miterlimit="1" stroke-linejoin="round"/>
<path d="M952.101 591.661L933.389 537.724L829.924 585.057L952.101 591.661Z" fill="#693572" stroke="#693572" stroke-miterlimit="1" stroke-linejoin="round"/>
<path d="M935.591 855.845L829.924 727.055L793.602 862.45L935.591 855.845Z" fill="#64326A" stroke="#64326A" stroke-miterlimit="1" stroke-linejoin="round"/>
<path d="M949.9 353.896L891.563 275.742L803.508 377.012L949.9 353.896Z" fill="#63336F" stroke="#63336F" stroke-miterlimit="1" stroke-linejoin="round"/>
<path d="M933.389 537.724L897.066 455.167L837.629 533.321L933.389 537.724Z" fill="#683571" stroke="#683571" stroke-miterlimit="1" stroke-linejoin="round"/>
<path d="M933.389 537.724L837.629 533.321L829.924 585.057L933.389 537.724Z" fill="#66346F" stroke="#66346F" stroke-miterlimit="1" stroke-linejoin="round"/>
<path d="M939.994 73.2009L793.602 0.550415L917.98 168.968L939.994 73.2009Z" fill="#592F69" stroke="#592F69" stroke-miterlimit="1" stroke-linejoin="round"/>
<path d="M917.978 168.968L793.6 0.550415L751.773 23.6665L917.978 168.968Z" fill="#58306A" stroke="#58306A" stroke-miterlimit="1" stroke-linejoin="round"/>
<path d="M829.924 727.055L766.084 808.512L793.601 862.45L829.924 727.055Z" fill="#5E3067" stroke="#5E3067" stroke-miterlimit="1" stroke-linejoin="round"/>
<path d="M917.978 168.968L751.773 23.6665L891.562 275.742L917.978 168.968Z" fill="#5B306B" stroke="#5B306B" stroke-miterlimit="1" stroke-linejoin="round"/>
<path d="M891.562 275.742L539.34 145.851L803.507 377.012L891.562 275.742Z" fill="#5D3270" stroke="#5D3270" stroke-miterlimit="1" stroke-linejoin="round"/>
<path d="M891.562 275.742L751.774 23.6665L539.34 145.851L891.562 275.742Z" fill="#5B3270" stroke="#5B3270" stroke-miterlimit="1" stroke-linejoin="round"/>
<path d="M897.065 455.167L811.211 511.306L837.628 533.321L897.065 455.167Z" fill="#65346F" stroke="#65346F" stroke-miterlimit="1" stroke-linejoin="round"/>
<path d="M897.067 455.166L803.508 377.012L811.213 511.305L897.067 455.166Z" fill="#63336F" stroke="#63336F" stroke-miterlimit="1" stroke-linejoin="round"/>
<path d="M829.924 585.057L753.977 669.816L829.924 727.055V585.057Z" fill="#62326B" stroke="#62326B" stroke-miterlimit="1" stroke-linejoin="round"/>
<path d="M837.628 533.321L824.42 577.351L829.923 585.057L837.628 533.321Z" fill="#67346E" stroke="#67346E" stroke-miterlimit="1" stroke-linejoin="round"/>
<path d="M803.507 377.012L539.34 145.851L542.642 385.818L803.507 377.012Z" fill="#5D3374" stroke="#5D3374" stroke-miterlimit="1" stroke-linejoin="round"/>
<path d="M811.212 511.305L803.507 377.012L752.875 444.159L811.212 511.305Z" fill="#61326E" stroke="#61326E" stroke-miterlimit="1" stroke-linejoin="round"/>
<path d="M837.628 533.321L811.211 511.305L824.419 577.351L837.628 533.321Z" fill="#62336E" stroke="#62336E" stroke-miterlimit="1" stroke-linejoin="round"/>
<path d="M829.924 727.055L733.062 725.955L766.083 808.512L829.924 727.055Z" fill="#5E3067" stroke="#5E3067" stroke-miterlimit="1" stroke-linejoin="round"/>
<path d="M829.924 727.055L753.976 669.816L733.062 725.955L829.924 727.055Z" fill="#603169" stroke="#603169" stroke-miterlimit="1" stroke-linejoin="round"/>
<path d="M829.924 585.057L824.421 577.351L753.977 669.816L829.924 585.057Z" fill="#66336C" stroke="#66336C" stroke-miterlimit="1" stroke-linejoin="round"/>
<path d="M811.212 511.306L649.41 471.678L753.976 669.816L811.212 511.306Z" fill="#5E316C" stroke="#5E316C" stroke-miterlimit="1" stroke-linejoin="round"/>
<path d="M824.421 577.351L811.213 511.305L753.977 669.816L824.421 577.351Z" fill="#63336D" stroke="#63336D" stroke-miterlimit="1" stroke-linejoin="round"/>
<path d="M753.975 669.816L649.41 471.678L596.576 566.344L753.975 669.816Z" fill="#5C316B" stroke="#5C316B" stroke-miterlimit="1" stroke-linejoin="round"/>
<path d="M803.507 377.012L542.643 385.818L752.875 444.159L803.507 377.012Z" fill="#5D326F" stroke="#5D326F" stroke-miterlimit="1" stroke-linejoin="round"/>
<path d="M811.212 511.305L752.875 444.159L649.41 471.678L811.212 511.305Z" fill="#5F326E" stroke="#5F326E" stroke-miterlimit="1" stroke-linejoin="round"/>
<path d="M751.774 23.6665L682.43 0.550415L539.34 145.851L751.774 23.6665Z" fill="#593273" stroke="#593273" stroke-miterlimit="1" stroke-linejoin="round"/>
<path d="M752.875 444.159L542.643 385.818L649.41 471.678L752.875 444.159Z" fill="#5C326F" stroke="#5C326F" stroke-miterlimit="1" stroke-linejoin="round"/>
<path d="M793.6 862.45L766.083 808.512L665.92 862.45H793.6Z" fill="#5A2E62" stroke="#5A2E62" stroke-miterlimit="1" stroke-linejoin="round"/>
<path d="M793.6 0.550415H717.652L751.774 23.6665L793.6 0.550415Z" fill="#562F6B" stroke="#562F6B" stroke-miterlimit="1" stroke-linejoin="round"/>
<path d="M766.083 808.512L733.062 725.955L665.92 862.45L766.083 808.512Z" fill="#5A2E64" stroke="#5A2E64" stroke-miterlimit="1" stroke-linejoin="round"/>
<path d="M751.773 23.6665L717.652 0.550415H682.43L751.773 23.6665Z" fill="#5A3271" stroke="#5A3271" stroke-miterlimit="1" stroke-linejoin="round"/>
<path d="M753.976 669.816L597.678 690.73L733.063 725.955L753.976 669.816Z" fill="#5B2F66" stroke="#5B2F66" stroke-miterlimit="1" stroke-linejoin="round"/>
<path d="M753.975 669.816L596.576 566.344L597.677 690.73L753.975 669.816Z" fill="#5A2F68" stroke="#5A2F68" stroke-miterlimit="1" stroke-linejoin="round"/>
<path d="M733.063 725.955L597.678 690.73L665.921 862.45L733.063 725.955Z" fill="#582E64" stroke="#582E64" stroke-miterlimit="1" stroke-linejoin="round"/>
<path d="M530.534 848.14L408.357 832.729L355.523 844.837L530.534 848.14Z" fill="#502B60" stroke="#502B60" stroke-miterlimit="1" stroke-linejoin="round"/>
<path d="M542.643 385.818L539.341 145.851L476.602 341.788L542.643 385.818Z" fill="#5E357B" stroke="#5E357B" stroke-miterlimit="1" stroke-linejoin="round"/>
<path d="M597.677 690.73L522.83 839.334L530.535 848.14L597.677 690.73Z" fill="#522C60" stroke="#522C60" stroke-miterlimit="1" stroke-linejoin="round"/>
<path d="M665.921 862.45L597.678 690.73L530.535 848.14L665.921 862.45Z" fill="#542C61" stroke="#542C61" stroke-miterlimit="1" stroke-linejoin="round"/>
<path d="M682.43 0.550415L494.211 28.0695L539.339 145.851L682.43 0.550415Z" fill="#5D357B" stroke="#5D357B" stroke-miterlimit="1" stroke-linejoin="round"/>
<path d="M539.34 145.851L494.212 28.0695L493.111 93.0146L539.34 145.851Z" fill="#603782" stroke="#603782" stroke-miterlimit="1" stroke-linejoin="round"/>
<path d="M649.41 471.678L542.643 385.818L560.254 477.182L649.41 471.678Z" fill="#5B3270" stroke="#5B3270" stroke-miterlimit="1" stroke-linejoin="round"/>
<path d="M649.41 471.678L570.16 515.709L596.577 566.344L649.41 471.678Z" fill="#5A316D" stroke="#5A316D" stroke-miterlimit="1" stroke-linejoin="round"/>
<path d="M597.678 690.73L500.816 721.552L522.83 839.334L597.678 690.73Z" fill="#542C62" stroke="#542C62" stroke-miterlimit="1" stroke-linejoin="round"/>
<path d="M649.41 471.678L560.254 477.182L570.16 515.709L649.41 471.678Z" fill="#5B316D" stroke="#5B316D" stroke-miterlimit="1" stroke-linejoin="round"/>
<path d="M539.341 145.851L403.955 188.781L476.601 341.788L539.341 145.851Z" fill="#613782" stroke="#613782" stroke-miterlimit="1" stroke-linejoin="round"/>
<path d="M560.254 477.182L542.643 385.818L526.133 427.647L560.254 477.182Z" fill="#5B3272" stroke="#5B3272" stroke-miterlimit="1" stroke-linejoin="round"/>
<path d="M597.677 690.73L485.406 701.738L500.816 721.552L597.677 690.73Z" fill="#552E66" stroke="#552E66" stroke-miterlimit="1" stroke-linejoin="round"/>
<path d="M597.677 690.73L487.608 613.677L485.406 701.738L597.677 690.73Z" fill="#562E67" stroke="#562E67" stroke-miterlimit="1" stroke-linejoin="round"/>
<path d="M597.677 690.73L596.576 566.344L487.607 613.677L597.677 690.73Z" fill="#572F68" stroke="#572F68" stroke-miterlimit="1" stroke-linejoin="round"/>
<path d="M596.576 566.344L570.16 515.708L487.607 613.677L596.576 566.344Z" fill="#58306B" stroke="#58306B" stroke-miterlimit="1" stroke-linejoin="round"/>
<path d="M487.608 613.677L475.5 627.987L485.406 701.738L487.608 613.677Z" fill="#59306A" stroke="#59306A" stroke-miterlimit="1" stroke-linejoin="round"/>
<path d="M570.16 515.709L560.253 477.182L487.607 613.677L570.16 515.709Z" fill="#58306C" stroke="#58306C" stroke-miterlimit="1" stroke-linejoin="round"/>
<path d="M560.254 477.182L526.132 427.647L461.191 412.237L560.254 477.182Z" fill="#5B3273" stroke="#5B3273" stroke-miterlimit="1" stroke-linejoin="round"/>
<path d="M560.254 477.182L461.191 412.237L487.608 613.677L560.254 477.182Z" fill="#59316F" stroke="#59316F" stroke-miterlimit="1" stroke-linejoin="round"/>
<path d="M487.608 613.677L461.191 412.237L421.566 612.576L487.608 613.677Z" fill="#57306D" stroke="#57306D" stroke-miterlimit="1" stroke-linejoin="round"/>
<path d="M522.83 839.334L500.816 721.552L408.357 832.729L522.83 839.334Z" fill="#522B60" stroke="#522B60" stroke-miterlimit="1" stroke-linejoin="round"/>
<path d="M530.535 848.14L522.83 839.334L408.357 832.729L530.535 848.14Z" fill="#4A2756" stroke="#4A2756" stroke-miterlimit="1" stroke-linejoin="round"/>
<path d="M539.341 145.851L406.156 152.456L403.955 188.781L539.341 145.851Z" fill="#643A88" stroke="#643A88" stroke-miterlimit="1" stroke-linejoin="round"/>
<path d="M542.643 385.818L461.191 412.237L526.132 427.647L542.643 385.818Z" fill="#5B3374" stroke="#5B3374" stroke-miterlimit="1" stroke-linejoin="round"/>
<path d="M542.643 385.818L476.601 341.788L461.191 412.237L542.643 385.818Z" fill="#5D3477" stroke="#5D3477" stroke-miterlimit="1" stroke-linejoin="round"/>
<path d="M539.34 145.851L493.111 93.0146L406.156 152.456L539.34 145.851Z" fill="#623885" stroke="#623885" stroke-miterlimit="1" stroke-linejoin="round"/>
<path d="M461.19 412.237L345.617 565.243L421.565 612.576L461.19 412.237Z" fill="#56306E" stroke="#56306E" stroke-miterlimit="1" stroke-linejoin="round"/>
<path d="M494.212 28.0695L235.549 0.550415L367.632 79.8055L494.212 28.0695Z" fill="#693F97" stroke="#693F97" stroke-miterlimit="1" stroke-linejoin="round"/>
<path d="M500.815 721.552L392.947 751.272L408.357 832.729L500.815 721.552Z" fill="#4F2B60" stroke="#4F2B60" stroke-miterlimit="1" stroke-linejoin="round"/>
<path d="M461.192 412.237L320.303 455.166L345.619 565.243L461.192 412.237Z" fill="#593273" stroke="#593273" stroke-miterlimit="1" stroke-linejoin="round"/>
<path d="M476.601 341.788L403.955 188.781L412.761 359.4L476.601 341.788Z" fill="#613781" stroke="#613781" stroke-miterlimit="1" stroke-linejoin="round"/>
<path d="M485.406 701.738L430.371 688.529L392.947 751.272L485.406 701.738Z" fill="#522D64" stroke="#522D64" stroke-miterlimit="1" stroke-linejoin="round"/>
<path d="M485.406 701.738L475.5 627.987L430.371 688.529L485.406 701.738Z" fill="#532D65" stroke="#532D65" stroke-miterlimit="1" stroke-linejoin="round"/>
<path d="M493.111 93.0147L420.465 83.1078L406.156 152.456L493.111 93.0147Z" fill="#633A8B" stroke="#633A8B" stroke-miterlimit="1" stroke-linejoin="round"/>
<path d="M494.213 28.0695L367.633 79.8054L420.466 83.1077L494.213 28.0695Z" fill="#623A8C" stroke="#623A8C" stroke-miterlimit="1" stroke-linejoin="round"/>
<path d="M494.211 28.0695L420.465 83.1077L493.111 93.0146L494.211 28.0695Z" fill="#623988" stroke="#623988" stroke-miterlimit="1" stroke-linejoin="round"/>
<path d="M500.815 721.552L485.406 701.738L392.947 751.272L500.815 721.552Z" fill="#522C62" stroke="#522C62" stroke-miterlimit="1" stroke-linejoin="round"/>
<path d="M476.6 341.788L412.76 359.4L461.19 412.237L476.6 341.788Z" fill="#5D357A" stroke="#5D357A" stroke-miterlimit="1" stroke-linejoin="round"/>
<path d="M487.608 613.677L421.566 612.576L475.5 627.987L487.608 613.677Z" fill="#542D65" stroke="#542D65" stroke-miterlimit="1" stroke-linejoin="round"/>
<path d="M355.524 844.837L231.145 815.117L93.5586 862.45L355.524 844.837Z" fill="#482758" stroke="#482758" stroke-miterlimit="1" stroke-linejoin="round"/>
<path d="M475.5 627.987L421.566 612.576L430.372 688.529L475.5 627.987Z" fill="#532D67" stroke="#532D67" stroke-miterlimit="1" stroke-linejoin="round"/>
<path d="M412.76 359.4L403.954 188.781L343.416 352.795L412.76 359.4Z" fill="#623884" stroke="#623884" stroke-miterlimit="1" stroke-linejoin="round"/>
<path d="M461.19 412.237L412.76 359.4L335.711 401.229L461.19 412.237Z" fill="#5D357A" stroke="#5D357A" stroke-miterlimit="1" stroke-linejoin="round"/>
<path d="M461.192 412.237L335.712 401.229L320.303 455.167L461.192 412.237Z" fill="#5B3479" stroke="#5B3479" stroke-miterlimit="1" stroke-linejoin="round"/>
<path d="M345.619 565.243L320.303 455.167L318.102 541.026L345.619 565.243Z" fill="#563070" stroke="#563070" stroke-miterlimit="1" stroke-linejoin="round"/>
<path d="M358.827 175.572L270.771 227.308L343.417 352.795L358.827 175.572Z" fill="#653C8E" stroke="#653C8E" stroke-miterlimit="1" stroke-linejoin="round"/>
<path d="M377.538 178.874L358.826 175.572L343.416 352.795L377.538 178.874Z" fill="#663C8E" stroke="#663C8E" stroke-miterlimit="1" stroke-linejoin="round"/>
<path d="M403.954 188.781L377.538 178.874L343.416 352.795L403.954 188.781Z" fill="#653B8B" stroke="#653B8B" stroke-miterlimit="1" stroke-linejoin="round"/>
<path d="M420.466 83.1077L367.633 79.8054L406.157 152.456L420.466 83.1077Z" fill="#673D92" stroke="#673D92" stroke-miterlimit="1" stroke-linejoin="round"/>
<path d="M430.371 688.529L325.805 711.645L392.947 751.272L430.371 688.529Z" fill="#512C63" stroke="#512C63" stroke-miterlimit="1" stroke-linejoin="round"/>
<path d="M430.371 688.529L332.409 634.591L325.805 711.645L430.371 688.529Z" fill="#512C64" stroke="#512C64" stroke-miterlimit="1" stroke-linejoin="round"/>
<path d="M430.372 688.529L421.566 612.576L332.41 634.591L430.372 688.529Z" fill="#522D66" stroke="#522D66" stroke-miterlimit="1" stroke-linejoin="round"/>
<path d="M408.357 832.729L392.947 751.272L355.523 844.837L408.357 832.729Z" fill="#4C295C" stroke="#4C295C" stroke-miterlimit="1" stroke-linejoin="round"/>
<path d="M421.566 612.576L345.618 565.243L332.41 634.591L421.566 612.576Z" fill="#542E69" stroke="#542E69" stroke-miterlimit="1" stroke-linejoin="round"/>
<path d="M406.156 152.456L367.632 79.8054L358.826 175.572L406.156 152.456Z" fill="#673D93" stroke="#673D93" stroke-miterlimit="1" stroke-linejoin="round"/>
<path d="M406.157 152.456L377.539 178.874L403.956 188.781L406.157 152.456Z" fill="#653C8E" stroke="#653C8E" stroke-miterlimit="1" stroke-linejoin="round"/>
<path d="M412.76 359.4L343.416 352.795L335.711 401.229L412.76 359.4Z" fill="#5D357E" stroke="#5D357E" stroke-miterlimit="1" stroke-linejoin="round"/>
<path d="M406.156 152.456L358.826 175.572L377.538 178.874L406.156 152.456Z" fill="#633B8F" stroke="#633B8F" stroke-miterlimit="1" stroke-linejoin="round"/>
<path d="M367.632 79.8054L294.986 143.65L358.827 175.572L367.632 79.8054Z" fill="#693F98" stroke="#693F98" stroke-miterlimit="1" stroke-linejoin="round"/>
<path d="M392.948 751.272L299.389 735.862L355.524 844.837L392.948 751.272Z" fill="#4E2A5E" stroke="#4E2A5E" stroke-miterlimit="1" stroke-linejoin="round"/>
<path d="M392.948 751.272L325.805 711.645L299.389 735.862L392.948 751.272Z" fill="#4E2B60" stroke="#4E2B60" stroke-miterlimit="1" stroke-linejoin="round"/>
<path d="M343.416 352.795L270.77 227.308L264.166 349.493L343.416 352.795Z" fill="#623989" stroke="#623989" stroke-miterlimit="1" stroke-linejoin="round"/>
<path d="M355.525 844.837L299.39 735.862L231.146 815.117L355.525 844.837Z" fill="#4B295C" stroke="#4B295C" stroke-miterlimit="1" stroke-linejoin="round"/>
<path d="M367.632 79.8054L257.562 123.836L294.986 143.65L367.632 79.8054Z" fill="#6D429F" stroke="#6D429F" stroke-miterlimit="1" stroke-linejoin="round"/>
<path d="M367.632 79.8055L235.549 0.550415L257.563 123.836L367.632 79.8055Z" fill="#6F43A4" stroke="#6F43A4" stroke-miterlimit="1" stroke-linejoin="round"/>
<path d="M358.827 175.572L294.987 143.65L270.771 227.308L358.827 175.572Z" fill="#693F98" stroke="#693F98" stroke-miterlimit="1" stroke-linejoin="round"/>
<path d="M332.41 634.591L259.764 669.816L325.805 711.645L332.41 634.591Z" fill="#502C64" stroke="#502C64" stroke-miterlimit="1" stroke-linejoin="round"/>
<path d="M332.41 634.591L278.475 631.289L259.764 669.816L332.41 634.591Z" fill="#512D68" stroke="#512D68" stroke-miterlimit="1" stroke-linejoin="round"/>
<path d="M335.713 401.229L264.168 349.493L258.664 368.206L335.713 401.229Z" fill="#5F3782" stroke="#5F3782" stroke-miterlimit="1" stroke-linejoin="round"/>
<path d="M343.416 352.795L264.166 349.493L335.711 401.229L343.416 352.795Z" fill="#5D3680" stroke="#5D3680" stroke-miterlimit="1" stroke-linejoin="round"/>
<path d="M345.619 565.243L278.477 631.289L332.411 634.591L345.619 565.243Z" fill="#512D68" stroke="#512D68" stroke-miterlimit="1" stroke-linejoin="round"/>
<path d="M345.619 565.243L318.102 541.026L278.477 631.289L345.619 565.243Z" fill="#542F6C" stroke="#542F6C" stroke-miterlimit="1" stroke-linejoin="round"/>
<path d="M320.303 455.166L243.254 446.36L318.101 541.026L320.303 455.166Z" fill="#573274" stroke="#573274" stroke-miterlimit="1" stroke-linejoin="round"/>
<path d="M335.712 401.229L243.254 446.36L320.303 455.167L335.712 401.229Z" fill="#5A3379" stroke="#5A3379" stroke-miterlimit="1" stroke-linejoin="round"/>
<path d="M335.712 401.229L258.664 368.206L243.254 446.36L335.712 401.229Z" fill="#5B357C" stroke="#5B357C" stroke-miterlimit="1" stroke-linejoin="round"/>
<path d="M294.986 143.65L255.361 153.557L270.771 227.308L294.986 143.65Z" fill="#6C419D" stroke="#6C419D" stroke-miterlimit="1" stroke-linejoin="round"/>
<path d="M325.805 711.645L259.764 669.816L299.389 735.862L325.805 711.645Z" fill="#4D2A60" stroke="#4D2A60" stroke-miterlimit="1" stroke-linejoin="round"/>
<path d="M318.1 541.026L167.305 469.476L278.475 631.289L318.1 541.026Z" fill="#542F6E" stroke="#542F6E" stroke-miterlimit="1" stroke-linejoin="round"/>
<path d="M318.1 541.026L243.253 446.36L167.305 469.476L318.1 541.026Z" fill="#563172" stroke="#563172" stroke-miterlimit="1" stroke-linejoin="round"/>
<path d="M257.562 123.836L235.549 0.550415L208.031 107.325L257.562 123.836Z" fill="#7246AB" stroke="#7246AB" stroke-miterlimit="1" stroke-linejoin="round"/>
<path d="M264.167 349.493L189.319 259.23L178.312 298.858L264.167 349.493Z" fill="#653B8F" stroke="#653B8F" stroke-miterlimit="1" stroke-linejoin="round"/>
<path d="M270.772 227.308L189.32 259.23L264.168 349.493L270.772 227.308Z" fill="#653C90" stroke="#653C90" stroke-miterlimit="1" stroke-linejoin="round"/>
<path d="M299.39 735.862L259.765 669.816L231.146 815.117L299.39 735.862Z" fill="#4C2A5F" stroke="#4C2A5F" stroke-miterlimit="1" stroke-linejoin="round"/>
<path d="M278.476 631.289L167.306 469.476L94.6602 607.072L278.476 631.289Z" fill="#522E6C" stroke="#522E6C" stroke-miterlimit="1" stroke-linejoin="round"/>
<path d="M294.986 143.65L257.563 123.836L255.361 153.557L294.986 143.65Z" fill="#7043A3" stroke="#7043A3" stroke-miterlimit="1" stroke-linejoin="round"/>
<path d="M259.765 669.816L100.164 719.35L231.147 815.117L259.765 669.816Z" fill="#4B295F" stroke="#4B295F" stroke-miterlimit="1" stroke-linejoin="round"/>
<path d="M278.476 631.289L94.6602 607.072L259.764 669.816L278.476 631.289Z" fill="#4F2C65" stroke="#4F2C65" stroke-miterlimit="1" stroke-linejoin="round"/>
<path d="M270.772 227.308L255.362 153.557L189.32 259.23L270.772 227.308Z" fill="#6A409B" stroke="#6A409B" stroke-miterlimit="1" stroke-linejoin="round"/>
<path d="M258.664 368.206L134.285 425.446L243.254 446.36L258.664 368.206Z" fill="#5B357C" stroke="#5B357C" stroke-miterlimit="1" stroke-linejoin="round"/>
<path d="M264.167 349.493L178.312 298.858L258.663 368.206L264.167 349.493Z" fill="#623A8A" stroke="#623A8A" stroke-miterlimit="1" stroke-linejoin="round"/>
<path d="M235.549 0.550415L151.896 68.7979L208.032 107.325L235.549 0.550415Z" fill="#7547AF" stroke="#7547AF" stroke-miterlimit="1" stroke-linejoin="round"/>
<path d="M257.562 123.836L208.031 107.325L255.361 153.557L257.562 123.836Z" fill="#7044A6" stroke="#7044A6" stroke-miterlimit="1" stroke-linejoin="round"/>
<path d="M259.764 669.816L94.6602 607.072L100.164 719.35L259.764 669.816Z" fill="#4E2B64" stroke="#4E2B64" stroke-miterlimit="1" stroke-linejoin="round"/>
<path d="M255.362 153.557L208.032 107.325L189.32 259.23L255.362 153.557Z" fill="#6D42A2" stroke="#6D42A2" stroke-miterlimit="1" stroke-linejoin="round"/>
<path d="M258.664 368.206L178.313 298.858L124.379 332.982L258.664 368.206Z" fill="#623A8A" stroke="#623A8A" stroke-miterlimit="1" stroke-linejoin="round"/>
<path d="M258.664 368.206L124.379 332.981L134.285 425.446L258.664 368.206Z" fill="#5D3782" stroke="#5D3782" stroke-miterlimit="1" stroke-linejoin="round"/>
<path d="M93.5599 862.45L-17.6102 833.83L-157.398 862.45H93.5599Z" fill="#442555" stroke="#442555" stroke-miterlimit="1" stroke-linejoin="round"/>
<path d="M208.031 107.325L111.17 240.517L189.319 259.23L208.031 107.325Z" fill="#6B419F" stroke="#6B419F" stroke-miterlimit="1" stroke-linejoin="round"/>
<path d="M235.548 0.550415H8.80469L151.895 68.7979L235.548 0.550415Z" fill="#7246AD" stroke="#7246AD" stroke-miterlimit="1" stroke-linejoin="round"/>
<path d="M243.254 446.36L134.285 425.446L167.306 469.476L243.254 446.36Z" fill="#593378" stroke="#593378" stroke-miterlimit="1" stroke-linejoin="round"/>
<path d="M208.031 107.325L77.0488 165.665L111.17 240.517L208.031 107.325Z" fill="#6C42A2" stroke="#6C42A2" stroke-miterlimit="1" stroke-linejoin="round"/>
<path d="M231.145 815.117L100.163 719.35L93.5586 862.45L231.145 815.117Z" fill="#48275A" stroke="#48275A" stroke-miterlimit="1" stroke-linejoin="round"/>
<path d="M208.031 107.325L151.896 68.7979L77.0488 165.665L208.031 107.325Z" fill="#7346AC" stroke="#7346AC" stroke-miterlimit="1" stroke-linejoin="round"/>
<path d="M189.32 259.23L110.07 266.936L178.313 298.858L189.32 259.23Z" fill="#653D92" stroke="#653D92" stroke-miterlimit="1" stroke-linejoin="round"/>
<path d="M189.32 259.23L111.171 240.517L110.07 266.936L189.32 259.23Z" fill="#653D94" stroke="#653D94" stroke-miterlimit="1" stroke-linejoin="round"/>
<path d="M167.305 469.476L28.6172 556.437L94.6589 607.072L167.305 469.476Z" fill="#512E6C" stroke="#512E6C" stroke-miterlimit="1" stroke-linejoin="round"/>
<path d="M178.313 298.858L110.07 266.936L124.379 332.981L178.313 298.858Z" fill="#613A8C" stroke="#613A8C" stroke-miterlimit="1" stroke-linejoin="round"/>
<path d="M167.305 469.476L134.284 425.446L28.6172 556.437L167.305 469.476Z" fill="#553173" stroke="#553173" stroke-miterlimit="1" stroke-linejoin="round"/>
<path d="M134.285 425.446L-9.90625 488.189L28.6181 556.437L134.285 425.446Z" fill="#522F70" stroke="#522F70" stroke-miterlimit="1" stroke-linejoin="round"/>
<path d="M151.895 68.7979L8.80469 0.550415L77.0477 165.665L151.895 68.7979Z" fill="#7045A9" stroke="#7045A9" stroke-miterlimit="1" stroke-linejoin="round"/>
<path d="M100.163 719.35L4.40234 803.008L93.5586 862.45L100.163 719.35Z" fill="#472759" stroke="#472759" stroke-miterlimit="1" stroke-linejoin="round"/>
<path d="M124.378 332.981L110.069 266.936L51.7324 291.152L124.378 332.981Z" fill="#623A8D" stroke="#623A8D" stroke-miterlimit="1" stroke-linejoin="round"/>
<path d="M134.285 425.446L124.378 332.982L51.7324 291.152L134.285 425.446Z" fill="#5C3783" stroke="#5C3783" stroke-miterlimit="1" stroke-linejoin="round"/>
<path d="M134.285 425.446L51.7326 291.152L-9.90625 488.189L134.285 425.446Z" fill="#58337A" stroke="#58337A" stroke-miterlimit="1" stroke-linejoin="round"/>
<path d="M51.7333 291.152L-16.5098 297.757L-9.9056 488.189L51.7333 291.152Z" fill="#5A357E" stroke="#5A357E" stroke-miterlimit="1" stroke-linejoin="round"/>
<path d="M100.163 719.35L-13.209 753.474L4.40213 803.008L100.163 719.35Z" fill="#47285B" stroke="#47285B" stroke-miterlimit="1" stroke-linejoin="round"/>
<path d="M100.163 719.35L94.6595 607.072L-17.6113 708.342L100.163 719.35Z" fill="#4A2A60" stroke="#4A2A60" stroke-miterlimit="1" stroke-linejoin="round"/>
<path d="M111.17 240.517L77.0482 165.665L14.3086 240.517H111.17Z" fill="#673E98" stroke="#673E98" stroke-miterlimit="1" stroke-linejoin="round"/>
<path d="M111.17 240.517L51.7324 291.152L110.069 266.936L111.17 240.517Z" fill="#623B90" stroke="#623B90" stroke-miterlimit="1" stroke-linejoin="round"/>
<path d="M111.17 240.517H14.3086L51.7322 291.152L111.17 240.517Z" fill="#633B90" stroke="#633B90" stroke-miterlimit="1" stroke-linejoin="round"/>
<path d="M94.6595 607.072L28.6178 556.437L-17.6113 708.342L94.6595 607.072Z" fill="#4C2B63" stroke="#4C2B63" stroke-miterlimit="1" stroke-linejoin="round"/>
<path d="M100.163 719.35L-17.6113 708.342L-13.2086 753.474L100.163 719.35Z" fill="#48285C" stroke="#48285C" stroke-miterlimit="1" stroke-linejoin="round"/>
<path d="M93.5588 862.45L4.40256 803.008L-17.6113 833.83L93.5588 862.45Z" fill="#452657" stroke="#452657" stroke-miterlimit="1" stroke-linejoin="round"/>
<path d="M77.0495 165.665L-157.398 94.1155L14.3099 240.517L77.0495 165.665Z" fill="#623B91" stroke="#623B91" stroke-miterlimit="1" stroke-linejoin="round"/>
<path d="M77.0495 165.665L8.80642 0.550415L-157.398 94.1155L77.0495 165.665Z" fill="#653E97" stroke="#653E97" stroke-miterlimit="1" stroke-linejoin="round"/>
<path d="M4.40213 803.008L-13.209 753.474L-12.1083 784.295L4.40213 803.008Z" fill="#3B224F" stroke="#3B224F" stroke-miterlimit="1" stroke-linejoin="round"/>
<path d="M28.6174 556.437L-112.271 677.521L-17.6118 708.342L28.6174 556.437Z" fill="#48295F" stroke="#48295F" stroke-miterlimit="1" stroke-linejoin="round"/>
<path d="M51.7322 291.152L14.3086 240.517L4.40234 249.323L51.7322 291.152Z" fill="#613A8C" stroke="#613A8C" stroke-miterlimit="1" stroke-linejoin="round"/>
<path d="M51.7333 291.152L4.40343 249.323L-16.5098 297.757L51.7333 291.152Z" fill="#5D3886" stroke="#5D3886" stroke-miterlimit="1" stroke-linejoin="round"/>
<path d="M4.40364 249.323L-157.398 94.1155V243.82L4.40364 249.323Z" fill="#593581" stroke="#593581" stroke-miterlimit="1" stroke-linejoin="round"/>
<path d="M14.3099 240.517L-157.398 94.1155L4.40364 249.323L14.3099 240.517Z" fill="#613B8E" stroke="#613B8E" stroke-miterlimit="1" stroke-linejoin="round"/>
<path d="M28.6189 556.437L-9.90539 488.189L-157.398 537.724L28.6189 556.437Z" fill="#4C2C66" stroke="#4C2C66" stroke-miterlimit="1" stroke-linejoin="round"/>
<path d="M28.6189 556.437L-157.398 537.724L-112.27 677.521L28.6189 556.437Z" fill="#492A61" stroke="#492A61" stroke-miterlimit="1" stroke-linejoin="round"/>
<path d="M8.80642 0.550415H-157.398V94.1155L8.80642 0.550415Z" fill="#5C3888" stroke="#5C3888" stroke-miterlimit="1" stroke-linejoin="round"/>
<path d="M4.40364 249.323L-157.398 243.82L-127.68 295.556L4.40364 249.323Z" fill="#58347E" stroke="#58347E" stroke-miterlimit="1" stroke-linejoin="round"/>
<path d="M4.40256 803.008L-12.1079 784.295L-17.6113 833.83L4.40256 803.008Z" fill="#422554" stroke="#422554" stroke-miterlimit="1" stroke-linejoin="round"/>
<path d="M4.40364 249.323L-127.68 295.556L-16.5096 297.757L4.40364 249.323Z" fill="#5B3682" stroke="#5B3682" stroke-miterlimit="1" stroke-linejoin="round"/>
</g>
<defs>
<clipPath id="clip0_1119_346">
<rect width="1585" height="863" fill="white"/>
</clipPath>
</defs>
</svg>